<?xml version="1.0" encoding="UTF-8"?>
<svg id="Layer_2" data-name="Layer 2" xmlns="http://www.w3.org/2000/svg" viewBox="0 0 193.26 123.96">
  <defs>
    <style>
      .cls-1 {
        fill: #f89c20;
      }

      .cls-2 {
        fill: #fff;
      }

      .cls-3 {
        fill: #3c2415;
      }
    </style>
  </defs>
  <g id="Layer_2-2" data-name="Layer 2">
    <g>
      <path class="cls-2" d="M193.26,0v123.96H0V0h193.26ZM54.94,50.67c3.6.6,10.02,0,14.03,0,.21,0,.83.72,1.54.8,1.68-1.49-.57-1.4-1.1-2.19-1.59-2.38-1.59-3.53-4.47-5.5-4.93-3.37-11.57-4.17-16.39-6.97-1.76-1.02-3.5-2.2-4.9-3.69.52-3.51,4.97,1.02,5.27,1.12,3.77,1.21,9.3,1.57,13.25,2.94l11.08,8.81c-.4-2.37-1.35-8.11-2.55-9.91-.18-.26-4.43-3.87-4.83-4.13-7.08-4.6-18.79-.04-24.75-3.88-.99-.64-1.76-2.97-3.7-3.13,1.51,4.61,2.37,10.92,4.77,15.1,1.6,2.79,9.8,10.13,12.76,10.62ZM96.4,28.93c-3.9,1.03-10.71,17.5-13.78,21.37-1.69,2.12-6.99,2.67-5.49,6.25,1.9.49,12.39,1.06,12.47-.8-.52-1.05-2.17-2.37-1.97-3.55.75-4.55,9.93-15.72,12.01-20.76.21-1.39-1.85-2.87-3.25-2.5ZM101.31,29.64c-.98,1.37,10.99,19.34,12.13,22.55l-1.99,3.56c.09,1.86,10.57,1.29,12.47.8,1.48-3.61-3.8-4.11-5.49-6.25-3.98-5.02-6.73-13.83-10.92-18.7-.68-.79-1.96-2.42-2.87-2.64-.62-.15-3.24.54-3.34.68ZM72.47,71.72h67.41c2.13-1.13,5.27-11.69,2.34-11.69H57.67c.71,10.55,5.49,21.62,9.74,31.18h54.16c.76,2.63-.38,6.27-1.95,8.58h-49.48c-.08,3.68,1.9,10.61,6.01,11.53,14.7-.73,31.38,1.54,45.84.2,5.21-.48,6.01-1.42,7.9-6.13,3.02-7.54,4.49-16.55,7.93-24.05l-1.05-1.81h-61.56c-1.55,0-3.31-6.21-2.73-7.8Z"/>
      <path class="cls-3" d="M71.67,71.66c-.2,2.06.24,7.4,3.01,8.11,27.49,6.95,36.89,2.73,62.9-1.6.66-.11,2.49-1.01,2.84-.38-3.85,7.67-6.55,18.98-9.82,26.7-2.05,4.83-2.41,5.73-8.17,6.96-15.98,3.42-33.39,2.64-50.04,1.56-4.68-2.59-3.06-8.81-2.64-13.28,16.89,3.28,33,3.23,50,.6,1.58-2.65,2.64-5.44,1.98-8.53-18.84,3.59-35.68,1.93-54.41-1.09-4.98-13.12-10.83-25.42-14.12-39.23,39.41,20.54,57.61,15.57,97.2,2.07,5.5-1.87-6.63,15.72-8.24,16.52-32.25,6.35-38.7,7.45-70.5,1.6Z"/>
      <path class="cls-1" d="M101.31,29.64c.1-.14,2.72-.83,3.34-.68.91.22,2.19,1.85,2.87,2.64,4.19,4.88,6.94,13.68,10.92,18.7,1.69,2.13,6.97,2.64,5.49,6.25-1.9.49-12.39,1.06-12.47-.8l1.99-3.56c-1.14-3.21-13.11-21.18-12.13-22.55Z"/>
      <path class="cls-1" d="M96.4,28.93c1.39-.37,3.46,1.11,3.25,2.5-2.08,5.05-11.27,16.21-12.01,20.76-.19,1.18,1.45,2.51,1.97,3.55-.08,1.86-10.57,1.29-12.47.8-1.5-3.57,3.8-4.12,5.49-6.25,3.07-3.86,9.88-20.34,13.78-21.37Z"/>
    </g>
  </g>
</svg>